<?xml version="1.0" encoding="utf-8"?>
<!-- Generator: Adobe Illustrator 16.0.0, SVG Export Plug-In . SVG Version: 6.00 Build 0)  -->
<!DOCTYPE svg PUBLIC "-//W3C//DTD SVG 1.1//EN" "http://www.w3.org/Graphics/SVG/1.1/DTD/svg11.dtd">
<svg version="1.1" id="Layer_1" xmlns="http://www.w3.org/2000/svg" xmlns:xlink="http://www.w3.org/1999/xlink" x="0px" y="0px"
	 width="701.635px" height="609.728px" viewBox="0 0 701.635 609.728" enable-background="new 0 0 701.635 609.728"
	 xml:space="preserve">
<path fill="#EFEFEF" fill-rule="evenodd" clip-rule="evenodd" d="M133.733,299.117c-10.027-1.64-19.289-2.72-28.35-4.708
	C40.636,280.203-4.791,221.37,0.404,155.338C5.9,85.482,43.98,38.282,107.822,11.469c26.682-11.206,54.826-14.074,83.379-9.158
	c32.175,5.541,60.003,19.715,81.64,44.611c23.828,27.417,34.34,59.596,32.975,95.778c-0.094,2.49-0.146,4.981-0.166,7.472
	c-0.003,0.274,0.34,0.552,0.907,1.408c29.351-5.716,59.086-5.565,89.302,0.291c0-2.488,0.067-4.089-0.01-5.682
	c-2.149-44.182,11.643-82.108,45.208-111.608c29.38-25.82,64.341-36.133,103.085-34.058c71.45,3.829,135.486,55.752,152.479,125.284
	c13.746,56.246-0.563,104.716-45.652,142.342c-22.269,18.582-48.773,27.588-77.616,29.785c-1.758,0.135-3.513,0.338-5.815,0.563
	c20.464,60.085,18.772,118.817-7.348,176.217c-18.625,40.929-46.79,74.375-85.232,97.62
	c-81.785,49.456-164.912,49.962-246.916,0.891c-46.515-27.835-78.009-69.125-95.578-120.492
	C114.973,401.587,116.127,350.32,133.733,299.117z M166.493,275.798c-50.494,92.441-23.983,200.214,45.46,260.467
	c69.674,60.451,167.534,69.585,246.575,22.498c38.97-23.215,67.848-55.798,85.418-97.633
	c26.323-62.676,22.313-124.371-8.805-185.074c2.024,0.114,3.318,0.227,4.613,0.253c12.779,0.269,25.676,1.766,38.317,0.569
	c61.197-5.792,106.429-58.914,103.082-120.18C677.03,81.211,608.942,18.722,532.748,20.634
	c-36.91,0.926-68.458,14.112-91.786,43.273c-25.512,31.891-30.503,68.238-20.29,107.181c0.736,2.805,1.463,5.613,2.409,9.25
	c-48.603-16.865-96.41-16.765-144.978,0.007c0.898-2.941,1.396-4.507,1.855-6.084c8.907-30.604,8.261-60.732-6.158-89.547
	C251.542,40.233,204.24,14.93,153.004,21.28C94.463,28.535,52.565,59.748,29.772,114.26c-14.601,34.92-13.745,70.408,4.672,104.231
	c23.988,44.057,71.143,62.874,116.083,59.155C155.648,277.223,160.741,276.473,166.493,275.798z"/>
</svg>
